<?xml version="1.0" encoding="UTF-8"?><svg id="_лой_1" xmlns="http://www.w3.org/2000/svg" viewBox="0 0 69.25 69.25"><defs><style>.cls-10{fill:#fff;stroke:#0074b2;}.cls-10,.cls-20{stroke-miterlimit:2.67;}.cls-10,.cls-20,.cls-30{stroke-linecap:round;stroke-width:2px;}.cls-20,.cls-30{fill:none;stroke:#000;}.cls-30{stroke-linejoin:round;}.cls-40{fill:#0074b2;}</style></defs><g><circle class="cls-30" cx="35.1" cy="22.28" r="15.06"/><path class="cls-20" d="M4.08,62.03c0-11.69,13.68-21.17,30.55-21.17s30.55,9.48,30.55,21.17"/></g><path class="cls-40" d="M0,0V69.25H69.25V0H0ZM64.14,64.14H5.11V5.11h59.03v59.03Z"/><polygon class="cls-10" points="52.18 60.62 26.1 60.62 31.14 44.25 57.21 44.25 52.18 60.62"/><rect class="cls-10" x="12.99" y="58.25" width="13.48" height="2.37"/><g><path class="cls-40" d="M47.23,56.17c0,.14,0,.29-.03,.43-.08,.34-.41,.57-.74,.54-.38-.04-.64-.32-.65-.7,0-.5-.04-.99-.15-1.48-.47-2.14-1.66-3.76-3.55-4.86-.85-.49-1.77-.78-2.74-.89-.28-.03-.55-.03-.83-.05-.3-.02-.52-.15-.64-.43-.12-.27-.07-.53,.12-.75,.14-.17,.33-.24,.55-.24,2.23,.03,4.18,.78,5.83,2.28,1.4,1.27,2.28,2.85,2.67,4.7,.1,.48,.15,.96,.18,1.45Z"/><path class="cls-40" d="M44.67,56.25c-.02,.16-.03,.29-.06,.41-.11,.33-.44,.51-.79,.45-.32-.05-.57-.34-.58-.67,0-.78-.17-1.52-.54-2.2-.75-1.37-1.89-2.2-3.43-2.46-.25-.04-.5-.05-.75-.06-.52-.02-.84-.58-.6-1.04,.14-.25,.36-.37,.64-.37,1.25,0,2.4,.36,3.43,1.07,1.34,.93,2.19,2.21,2.53,3.8,.08,.36,.1,.72,.15,1.06Z"/><path class="cls-40" d="M42.08,56.35c0,.43-.24,.73-.64,.77-.37,.04-.72-.23-.77-.6-.03-.23-.04-.46-.09-.67-.24-.9-1.05-1.53-1.98-1.55-.33,0-.58-.13-.72-.44-.2-.47,.15-.98,.66-.98,.72,0,1.39,.2,1.99,.62,.84,.58,1.34,1.38,1.5,2.38,.03,.15,.03,.31,.05,.47Z"/><path class="cls-40" d="M38.7,55.6c.37,0,.67,.3,.67,.67,0,.37-.29,.67-.66,.67-.37,0-.68-.29-.68-.66,0-.37,.29-.67,.67-.68Z"/></g></svg>