<?xml version="1.0" encoding="UTF-8"?><svg id="_лой_1" xmlns="http://www.w3.org/2000/svg" viewBox="0 0 69.26 69.25"><defs><style>.cls-0{fill:#7f7f7f;}</style></defs><g><path class="cls-0" d="M31.79,39.37h-.02c-2.11-.45-4.07-1.3-5.83-2.53-.45-.32-.56-.94-.25-1.39,.32-.45,.94-.57,1.39-.25,1.54,1.07,3.26,1.81,5.1,2.21,.54,.12,.88,.65,.77,1.19-.11,.53-.63,.88-1.16,.77Zm5.96,.07c-.39-.07-.72-.38-.8-.79-.1-.54,.25-1.07,.79-1.17,1.84-.35,3.58-1.06,5.15-2.11,.46-.31,1.08-.18,1.39,.28,.31,.46,.18,1.08-.28,1.39-1.8,1.2-3.77,2.01-5.88,2.41-.13,.02-.25,.02-.37,0Zm-15.54-6.74c-.26-.05-.5-.2-.66-.45-1.15-1.82-1.92-3.82-2.27-5.93-.09-.54,.28-1.06,.82-1.15,.54-.09,1.06,.28,1.15,.82,.31,1.85,.98,3.6,1.99,5.19,.3,.47,.16,1.08-.31,1.38-.22,.14-.48,.18-.72,.14Zm25.27,.26c-.13-.02-.25-.07-.37-.15-.46-.31-.58-.93-.28-1.39,1.04-1.56,1.74-3.29,2.09-5.15,.1-.54,.63-.9,1.17-.8s.9,.63,.8,1.17c-.4,2.12-1.21,4.1-2.39,5.89-.23,.35-.64,.5-1.02,.43Zm-27.21-11.78s-.03,0-.04,0c-.54-.13-.87-.67-.74-1.2,.49-2.1,1.39-4.04,2.65-5.78,.33-.44,.95-.54,1.4-.22,.45,.33,.54,.95,.22,1.4-1.11,1.52-1.89,3.22-2.32,5.05-.12,.52-.64,.85-1.16,.75Zm29.6,1.64c-.42-.08-.75-.42-.81-.86-.23-1.86-.82-3.64-1.76-5.28-.27-.48-.11-1.09,.37-1.36,.48-.27,1.09-.11,1.36,.37,1.07,1.87,1.74,3.9,2,6.03,.07,.55-.32,1.05-.87,1.11-.1,.01-.21,0-.31-.01ZM27.16,11.75c-.27-.05-.52-.21-.67-.47-.28-.47-.13-1.09,.34-1.37,1.85-1.11,3.86-1.83,5.98-2.14,.55-.08,1.05,.3,1.13,.85,.08,.55-.3,1.05-.85,1.13-1.86,.27-3.62,.9-5.24,1.87-.22,.13-.47,.17-.7,.13Zm16.92,.94c-.15-.03-.29-.09-.42-.19-1.49-1.14-3.17-1.96-5-2.43-.54-.14-.86-.68-.72-1.22,.14-.53,.69-.84,1.22-.72,2.09,.54,4.01,1.48,5.71,2.78,.44,.34,.52,.96,.19,1.4-.24,.31-.62,.44-.98,.37Z"/><path class="cls-0" d="M4.08,64.41c-.55,0-1-.45-1-1,0-2.12,.42-4.21,1.25-6.22,.21-.51,.8-.75,1.31-.54,.51,.21,.75,.8,.54,1.31-.73,1.77-1.1,3.6-1.1,5.46,0,.55-.45,1-1,1Zm60.58-3.89c-.44,0-.84-.29-.96-.74-.47-1.75-1.28-3.46-2.42-5.07-.32-.45-.21-1.08,.24-1.39,.45-.32,1.08-.21,1.39,.24,1.27,1.8,2.18,3.72,2.71,5.7,.14,.53-.17,1.08-.71,1.22-.09,.02-.17,.03-.26,.03Zm-56.23-7.01c-.23,0-.47-.08-.66-.24-.42-.36-.46-.99-.1-1.41,1.31-1.5,2.87-2.9,4.65-4.15,.45-.32,1.08-.21,1.39,.24,.32,.45,.21,1.08-.24,1.39-1.65,1.15-3.09,2.44-4.28,3.82-.2,.23-.48,.34-.76,.34Zm49.57-2.74c-.22,0-.45-.07-.63-.23-1.43-1.18-3.06-2.25-4.83-3.17-.49-.26-.68-.86-.42-1.35,.26-.49,.86-.68,1.35-.42,1.9,.99,3.64,2.14,5.18,3.4,.43,.35,.49,.98,.14,1.41-.2,.24-.48,.37-.77,.37Zm-39.88-4.18c-.38,0-.75-.22-.91-.59-.23-.5,0-1.1,.51-1.32,1.83-.82,3.78-1.5,5.81-2.03,.53-.14,1.08,.18,1.22,.71s-.18,1.08-.71,1.22c-1.92,.51-3.77,1.16-5.5,1.93-.13,.06-.27,.09-.41,.09Zm29.34-1.4c-.1,0-.2-.02-.31-.05-1.82-.58-3.73-1.04-5.69-1.36-.55-.09-.92-.6-.83-1.15s.61-.92,1.15-.83c2.05,.33,4.06,.82,5.98,1.43,.53,.17,.82,.73,.65,1.26-.14,.42-.53,.69-.95,.69Zm-17.79-1.68c-.5,0-.93-.38-.99-.89-.06-.55,.33-1.04,.88-1.11,2.01-.23,4.09-.32,6.12-.27,.55,.01,.99,.47,.98,1.02-.01,.54-.46,.98-1,.98h-.02c-1.95-.05-3.94,.04-5.85,.26-.04,0-.08,0-.11,0Z"/></g><path class="cls-0" d="M69.26,69.26H0V0H69.26V69.26ZM64.14,5.11H5.11v59.03h59.03V5.11Z"/></svg>